<svg width="44" height="45" viewBox="0 0 44 45" fill="none" xmlns="http://www.w3.org/2000/svg">
<path d="M15.1495 42.5833C16.0239 42.5833 16.7328 41.8744 16.7328 41C16.7328 40.1255 16.0239 39.4166 15.1495 39.4166C14.275 39.4166 13.5662 40.1255 13.5662 41C13.5662 41.8744 14.275 42.5833 15.1495 42.5833Z" stroke="white" stroke-width="4" stroke-linecap="round" stroke-linejoin="round"/>
<path d="M32.566 42.5833C33.4405 42.5833 34.1493 41.8744 34.1493 41C34.1493 40.1255 33.4405 39.4166 32.566 39.4166C31.6915 39.4166 30.9827 40.1255 30.9827 41C30.9827 41.8744 31.6915 42.5833 32.566 42.5833Z" stroke="white" stroke-width="4" stroke-linecap="round" stroke-linejoin="round"/>
<path d="M2.83423 7.12476H9.16756L13.4109 28.3256C13.5557 29.0545 13.9522 29.7094 14.5312 30.1754C15.1101 30.6414 15.8345 30.889 16.5776 30.8748H31.9676C32.7106 30.889 33.435 30.6414 34.0139 30.1754C34.5929 29.7094 34.9894 29.0545 35.1342 28.3256L37.6676 15.0414H10.7509" stroke="white" stroke-width="4" stroke-linecap="round" stroke-linejoin="round"/>
</svg>
