<svg width="39" height="39" viewBox="0 0 39 39" fill="none" xmlns="http://www.w3.org/2000/svg">
<path d="M33.611 7.47727C32.8023 6.6682 31.8421 6.02638 30.7853 5.58849C29.7285 5.1506 28.5958 4.92522 27.4518 4.92522C26.3079 4.92522 25.1752 5.1506 24.1184 5.58849C23.0616 6.02638 22.1014 6.6682 21.2927 7.47727L19.6143 9.15561L17.936 7.47727C16.3025 5.84376 14.087 4.92606 11.7768 4.92606C9.46671 4.92606 7.25119 5.84376 5.61768 7.47727C3.98417 9.11079 3.06647 11.3263 3.06647 13.6364C3.06647 15.9466 3.98417 18.1621 5.61768 19.7956L7.29601 21.4739L19.6143 33.7923L31.9327 21.4739L33.611 19.7956C34.4201 18.9869 35.0619 18.0267 35.4998 16.9699C35.9377 15.9131 36.1631 14.7804 36.1631 13.6364C36.1631 12.4925 35.9377 11.3598 35.4998 10.303C35.0619 9.24615 34.4201 8.28597 33.611 7.47727Z" stroke="black" stroke-width="3" stroke-linecap="round" stroke-linejoin="round"/>
</svg>
