<svg width="39" height="39" viewBox="0 0 39 39" fill="none" xmlns="http://www.w3.org/2000/svg">
<g clip-path="url(#clip0_1_54)">
<path d="M33.8643 16.0114C33.8643 27.0948 19.6143 36.5948 19.6143 36.5948C19.6143 36.5948 5.36432 27.0948 5.36432 16.0114C5.36432 12.2321 6.86565 8.60755 9.53805 5.93516C12.2104 3.26276 15.835 1.76143 19.6143 1.76143C23.3937 1.76143 27.0182 3.26276 29.6906 5.93516C32.363 8.60755 33.8643 12.2321 33.8643 16.0114Z" stroke="black" stroke-width="3" stroke-linecap="round" stroke-linejoin="round"/>
<path d="M19.6143 20.7614C22.2377 20.7614 24.3643 18.6348 24.3643 16.0114C24.3643 13.3881 22.2377 11.2614 19.6143 11.2614C16.991 11.2614 14.8643 13.3881 14.8643 16.0114C14.8643 18.6348 16.991 20.7614 19.6143 20.7614Z" stroke="black" stroke-width="3" stroke-linecap="round" stroke-linejoin="round"/>
</g>
<defs>
<clipPath id="clip0_1_54">
<rect width="38" height="38" fill="white" transform="translate(0.614319 0.178101)"/>
</clipPath>
</defs>
</svg>
