<svg width="43" height="45" viewBox="0 0 43 45" fill="none" xmlns="http://www.w3.org/2000/svg">
<path d="M14.1495 42.5833C15.0239 42.5833 15.7328 41.8744 15.7328 41C15.7328 40.1255 15.0239 39.4166 14.1495 39.4166C13.275 39.4166 12.5662 40.1255 12.5662 41C12.5662 41.8744 13.275 42.5833 14.1495 42.5833Z" stroke="white" stroke-width="3" stroke-linecap="round" stroke-linejoin="round"/>
<path d="M31.566 42.5833C32.4405 42.5833 33.1493 41.8744 33.1493 41C33.1493 40.1255 32.4405 39.4166 31.566 39.4166C30.6915 39.4166 29.9827 40.1255 29.9827 41C29.9827 41.8744 30.6915 42.5833 31.566 42.5833Z" stroke="white" stroke-width="3" stroke-linecap="round" stroke-linejoin="round"/>
<path d="M1.83423 7.12476H8.16756L12.4109 28.3256C12.5557 29.0545 12.9522 29.7094 13.5312 30.1754C14.1101 30.6414 14.8345 30.889 15.5776 30.8748H30.9676C31.7106 30.889 32.435 30.6414 33.0139 30.1754C33.5929 29.7094 33.9894 29.0545 34.1342 28.3256L36.6676 15.0414H9.75089" stroke="white" stroke-width="3" stroke-linecap="round" stroke-linejoin="round"/>
</svg>
