<svg width="43" height="45" viewBox="0 0 43 45" fill="none" xmlns="http://www.w3.org/2000/svg">
<path d="M14.1485 42.5833C15.023 42.5833 15.7319 41.8744 15.7319 41C15.7319 40.1255 15.023 39.4166 14.1485 39.4166C13.2741 39.4166 12.5652 40.1255 12.5652 41C12.5652 41.8744 13.2741 42.5833 14.1485 42.5833Z" stroke="#F5E3D7" stroke-width="3" stroke-linecap="round" stroke-linejoin="round"/>
<path d="M31.565 42.5833C32.4395 42.5833 33.1484 41.8744 33.1484 41C33.1484 40.1255 32.4395 39.4166 31.565 39.4166C30.6906 39.4166 29.9817 40.1255 29.9817 41C29.9817 41.8744 30.6906 42.5833 31.565 42.5833Z" stroke="#F5E3D7" stroke-width="3" stroke-linecap="round" stroke-linejoin="round"/>
<path d="M1.83325 7.12476H8.16658L12.4099 28.3256C12.5547 29.0545 12.9513 29.7094 13.5302 30.1754C14.1091 30.6414 14.8335 30.889 15.5766 30.8748H30.9666C31.7096 30.889 32.434 30.6414 33.013 30.1754C33.5919 29.7094 33.9885 29.0545 34.1332 28.3256L36.6666 15.0414H9.74992" stroke="#F5E3D7" stroke-width="3" stroke-linecap="round" stroke-linejoin="round"/>
</svg>
