<svg width="125" height="25" viewBox="0 0 125 25" fill="none" xmlns="http://www.w3.org/2000/svg">
<path d="M12.9883 2.4519L16.0783 8.7119L22.9883 9.7219L17.9883 14.5919L19.1683 21.4719L12.9883 18.2219L6.80828 21.4719L7.98828 14.5919L2.98828 9.7219L9.89828 8.7119L12.9883 2.4519Z" stroke="#FFEE36" stroke-width="2" stroke-linecap="round" stroke-linejoin="round"/>
<path d="M62.9883 2.4519L66.0783 8.7119L72.9883 9.7219L67.9883 14.5919L69.1683 21.4719L62.9883 18.2219L56.8083 21.4719L57.9883 14.5919L52.9883 9.7219L59.8983 8.7119L62.9883 2.4519Z" stroke="#FFEE36" stroke-width="2" stroke-linecap="round" stroke-linejoin="round"/>
<path d="M37.9883 2.4519L41.0783 8.7119L47.9883 9.7219L42.9883 14.5919L44.1683 21.4719L37.9883 18.2219L31.8083 21.4719L32.9883 14.5919L27.9883 9.7219L34.8983 8.7119L37.9883 2.4519Z" stroke="#FFEE36" stroke-width="2" stroke-linecap="round" stroke-linejoin="round"/>
<path d="M87.9883 2.4519L91.0783 8.7119L97.9883 9.7219L92.9883 14.5919L94.1683 21.4719L87.9883 18.2219L81.8083 21.4719L82.9883 14.5919L77.9883 9.7219L84.8983 8.7119L87.9883 2.4519Z" stroke="#FFEE36" stroke-width="2" stroke-linecap="round" stroke-linejoin="round"/>
<path d="M112.988 2L116.078 8.26L122.988 9.27L117.988 14.14L119.168 21.02L112.988 17.77L106.808 21.02L107.988 14.14L102.988 9.27L109.898 8.26L112.988 2Z" stroke="#FFEE36" stroke-width="2" stroke-linecap="round" stroke-linejoin="round"/>
</svg>
