<svg width="25" height="25" viewBox="0 0 25 25" fill="none" xmlns="http://www.w3.org/2000/svg">
<path d="M11.0605 4.76141H4.06055C3.53011 4.76141 3.02141 4.97213 2.64633 5.3472C2.27126 5.72227 2.06055 6.23098 2.06055 6.76141V20.7614C2.06055 21.2918 2.27126 21.8006 2.64633 22.1756C3.02141 22.5507 3.53011 22.7614 4.06055 22.7614H18.0605C18.591 22.7614 19.0997 22.5507 19.4748 22.1756C19.8498 21.8006 20.0605 21.2918 20.0605 20.7614V13.7614" stroke="white" stroke-width="2" stroke-linecap="round" stroke-linejoin="round"/>
<path d="M18.5605 3.2614C18.9584 2.86357 19.4979 2.64008 20.0605 2.64008C20.6232 2.64008 21.1627 2.86357 21.5605 3.2614C21.9584 3.65922 22.1819 4.19879 22.1819 4.7614C22.1819 5.32401 21.9584 5.86357 21.5605 6.2614L12.0605 15.7614L8.06055 16.7614L9.06055 12.7614L18.5605 3.2614Z" stroke="white" stroke-width="2" stroke-linecap="round" stroke-linejoin="round"/>
</svg>
